<?xml version="1.0" encoding="utf-8"?>
<!-- Generator: Adobe Illustrator 19.0.0, SVG Export Plug-In . SVG Version: 6.00 Build 0)  -->
<svg version="1.1" id="Layer_1" xmlns="http://www.w3.org/2000/svg" xmlns:xlink="http://www.w3.org/1999/xlink" x="0px" y="0px"
	 viewBox="0 0 100 100" style="enable-background:new 0 0 100 100;" xml:space="preserve">
<path d="M95.3,31.6H76.1H55.4c-1.7,0-3.3-0.9-4.1-2.4l-6.1-11c-0.8-1.5-2.4-2.4-4.1-2.4H4.7c-2.6,0-4.7,2.1-4.7,4.7v59
	c0,2.6,2.1,4.7,4.7,4.7h90.6c2.6,0,4.7-2.1,4.7-4.7V36.3C100,33.7,97.9,31.6,95.3,31.6z M41.9,22.5l2.4,4.3c1.2,2.1-0.4,4.8-2.8,4.8
	H8.2c-1.8,0-3.2-1.4-3.2-3.2V24c0-1.8,1.4-3.2,3.2-3.2H39C40.2,20.8,41.3,21.4,41.9,22.5z M91.8,79.2H8.2C6.4,79.2,5,77.8,5,76V39.8
	c0-1.8,1.4-3.2,3.2-3.2h47.2h20.7h15.7c1.8,0,3.2,1.4,3.2,3.2V76C95,77.8,93.6,79.2,91.8,79.2z"/>
</svg>
