<?xml version="1.0" encoding="utf-8"?>
<!-- Generator: Adobe Illustrator 19.0.0, SVG Export Plug-In . SVG Version: 6.00 Build 0)  -->
<svg version="1.1" id="Layer_1" xmlns="http://www.w3.org/2000/svg" xmlns:xlink="http://www.w3.org/1999/xlink" x="0px" y="0px"
	 viewBox="0 0 100 100" style="enable-background:new 0 0 100 100;" xml:space="preserve">
<g>
	<path d="M91,11.8H9c-5,0-9,4-9,9v58.5c0,5,4,9,9,9h82c5,0,9-4,9-9V20.8C100,15.8,96,11.8,91,11.8z M5.7,20.8c0-1.8,1.5-3.3,3.3-3.3
		h82c1.8,0,3.3,1.5,3.3,3.3v37.6L81,47.7L64,61.4L39.5,41.7L5.7,68.9V20.8z"/>
	<circle cx="63.2" cy="33.8" r="7.3"/>
</g>
</svg>
