<?xml version="1.0" encoding="utf-8"?>
<!-- Generator: Adobe Illustrator 19.0.0, SVG Export Plug-In . SVG Version: 6.00 Build 0)  -->
<svg version="1.1" id="Layer_1" xmlns="http://www.w3.org/2000/svg" xmlns:xlink="http://www.w3.org/1999/xlink" x="0px" y="0px"
	 viewBox="0 0 100 100" style="enable-background:new 0 0 100 100;" xml:space="preserve">
<g id="XMLID_1_">
	<path id="XMLID_12_" d="M87,15.7c1.5,5.5,0.7,11.2-2.1,16.1L70.7,56.5c-0.8,1.4-1.7,2.7-2.8,3.8c-2.8,3-6.3,5.1-10.1,6.1
		c-1.6,0.4-3.3,0.7-5,0.7c-1.6,0.1-3.3-0.1-4.9-0.4c-2.1-0.4-4.2-1.2-6.2-2.4c-2-1.1-3.7-2.6-5.2-4.2l5.4-9.3
		c0.1-0.1,0.2-0.3,0.3-0.4c0.9,2.1,2.5,3.9,4.6,5.1c2.1,1.2,4.5,1.7,6.8,1.4c1.8-0.2,3.6-0.9,5.1-1.9c1.3-0.9,2.4-2.1,3.2-3.5
		l14.2-24.7c1.5-2.6,1.9-5.5,1.1-8.4s-2.6-5.2-5.2-6.7c-2.6-1.5-5.5-1.9-8.4-1.1c-2.8,0.8-5.2,2.6-6.7,5.2l-7.4,12.8
		c-2.9-0.2-5.8,0-8.7,0.8c-1.6,0.4-3,1-4.5,1.7l11.7-20.3C51,5.7,55.6,2.2,61,0.7C66.5-0.7,72.2,0,77.1,2.8
		C82,5.7,85.6,10.2,87,15.7z"/>
	<path id="XMLID_9_" d="M59,70.7c1.6-0.4,3.1-1,4.5-1.7L51.8,89.4c-2.9,5.1-7.6,8.5-12.9,9.9c-5.2,1.4-11,0.8-16.1-2.1
		c-5.1-2.9-8.5-7.6-9.9-12.9c-1.4-5.2-0.8-11,2.1-16.1l11.7-20.3l2.5-4.4c0.8-1.4,1.7-2.7,2.8-3.8c2.7-2.9,6.1-5,10-6.1
		c1.6-0.4,3.3-0.7,5-0.7c1.7-0.1,3.3,0.1,4.9,0.4c2.2,0.4,4.3,1.2,6.2,2.4c2,1.1,3.7,2.6,5.2,4.2L58,49.2c-0.1,0.1-0.2,0.3-0.3,0.4
		c-0.9-2.2-2.5-3.9-4.6-5.1c-2.1-1.2-4.4-1.7-6.8-1.4c-0.5,0.1-1.1,0.2-1.6,0.3c-1.3,0.3-2.4,0.9-3.5,1.6c-1.3,0.9-2.4,2.1-3.3,3.6
		l-4.3,7.5l-2.5,4.4l-7.4,12.8c-3,5.3-1.2,12,4.1,15.1c5.3,3,12.1,1.2,15.1-4.1l7.4-12.8C53.2,71.8,56.1,71.5,59,70.7z"/>
</g>
</svg>
