<?xml version="1.0" encoding="utf-8"?>
<!-- Generator: Adobe Illustrator 19.0.0, SVG Export Plug-In . SVG Version: 6.00 Build 0)  -->
<svg version="1.1" id="Layer_1" xmlns="http://www.w3.org/2000/svg" xmlns:xlink="http://www.w3.org/1999/xlink" x="0px" y="0px"
	 viewBox="0 0 100 100" style="enable-background:new 0 0 100 100;" xml:space="preserve">
<g id="XMLID_1_">
	<g id="XMLID_15_">
		<path id="XMLID_5_" d="M35.2,98.2L1.8,64.8c-2.4-2.4-2.4-6.2,0-8.6L56.2,1.8C57.4,0.6,58.9,0,60.5,0l33.4,0c1.6,0,3.1,0.6,4.3,1.8
			s1.8,2.7,1.8,4.3l0,33.4c0,1.6-0.6,3.1-1.8,4.3L43.8,98.2C41.4,100.6,37.6,100.6,35.2,98.2z M95.1,4.9c-0.3-0.3-0.7-0.5-1.2-0.5
			l-33.4,0c-0.4,0-0.9,0.2-1.2,0.5L4.9,59.3c-0.6,0.6-0.6,1.7,0,2.3l33.4,33.4c0.6,0.6,1.7,0.6,2.3,0l54.5-54.5
			c0.3-0.3,0.5-0.7,0.5-1.2V6.1C95.6,5.6,95.4,5.2,95.1,4.9z"/>
	</g>
	<g id="XMLID_14_">
		<path id="XMLID_2_" d="M72.1,27.9c-3.5-3.5-3.5-9.3,0-12.8c3.5-3.5,9.3-3.5,12.8,0c3.5,3.5,3.5,9.3,0,12.8
			C81.4,31.4,75.6,31.4,72.1,27.9z M81.8,18.2c-1.8-1.8-4.8-1.8-6.6,0c-1.8,1.8-1.8,4.8,0,6.6c1.8,1.8,4.8,1.8,6.6,0
			C83.6,23,83.6,20,81.8,18.2z"/>
	</g>
	<g id="XMLID_13_">
		<path id="XMLID_23_" d="M40.4,83.1c-0.4,0.4-1.1,0.4-1.6,0L17,61.4c-0.4-0.4-0.4-1.1,0-1.6l2.3-2.3c0.4-0.4,1.1-0.4,1.6,0
			l21.8,21.8c0.4,0.4,0.4,1.1,0,1.6L40.4,83.1z"/>
	</g>
	<g id="XMLID_11_">
		<path id="XMLID_21_" d="M48.2,75.4c-0.4,0.4-1.1,0.4-1.6,0L24.8,53.6c-0.4-0.4-0.4-1.1,0-1.6l2.3-2.3c0.4-0.4,1.1-0.4,1.6,0
			l21.8,21.8c0.4,0.4,0.4,1.1,0,1.6L48.2,75.4z"/>
	</g>
	<g id="XMLID_9_">
		<path id="XMLID_19_" d="M55.9,67.6c-0.4,0.4-1.1,0.4-1.6,0L32.6,45.8c-0.4-0.4-0.4-1.1,0-1.6l2.3-2.3c0.4-0.4,1.1-0.4,1.6,0
			l21.8,21.8c0.4,0.4,0.4,1.1,0,1.6L55.9,67.6z"/>
	</g>
	<g id="XMLID_7_">
		<path id="XMLID_17_" d="M63.7,59.8c-0.4,0.4-1.1,0.4-1.6,0L40.4,38c-0.4-0.4-0.4-1.1,0-1.6l2.3-2.3c0.4-0.4,1.1-0.4,1.6,0L66,55.9
			c0.4,0.4,0.4,1.1,0,1.6L63.7,59.8z"/>
	</g>
</g>
</svg>
