<?xml version="1.0" encoding="utf-8"?>
<!-- Generator: Adobe Illustrator 19.0.0, SVG Export Plug-In . SVG Version: 6.00 Build 0)  -->
<svg version="1.1" id="Layer_1" xmlns="http://www.w3.org/2000/svg" xmlns:xlink="http://www.w3.org/1999/xlink" x="0px" y="0px"
	 viewBox="0 0 100 100" style="enable-background:new 0 0 100 100;" xml:space="preserve">
<path d="M83.6,14.5V1.4c0-0.8-0.6-1.4-1.4-1.4H17.8c-0.8,0-1.4,0.6-1.4,1.4v13.2c0,0.8,0.6,1.4,1.4,1.4h10.3c0.8,0,1.4,0.6,1.4,1.4
	l0.1,38.4c0,1.3-0.6,2.5-1.6,3.3L14.3,69.7c-1.1,0.8-0.5,2.5,0.9,2.5H45L48.9,99c0.1,0.6,0.5,1,1.1,1c0.6,0,1-0.3,1.1-1L55,72.3
	h29.8c1.3,0,1.9-1.7,0.9-2.5L71.9,59c-1-0.8-1.6-2-1.6-3.3l0.1-38.4c0-0.8,0.6-1.4,1.4-1.4h10.3C82.9,15.9,83.6,15.3,83.6,14.5z
	 M28.4,64.9l4.6-3.6c1-0.8,1.6-2,1.6-3.3l-0.2-45.6c0-0.8-0.6-1.4-1.4-1.4H22.7c-0.8,0-1.4-0.6-1.4-1.4V6.2c0-0.8,0.6-1.4,1.4-1.4
	l27.3,0l27.3,0c0.8,0,1.4,0.6,1.4,1.4v3.5c0,0.8-0.6,1.4-1.4,1.4H67c-0.8,0-1.4,0.6-1.4,1.4l-0.2,45.6c0,1.3,0.6,2.5,1.6,3.3
	l4.6,3.6c1.1,0.8,0.5,2.5-0.9,2.5H29.2C27.9,67.4,27.3,65.7,28.4,64.9z"/>
</svg>
