<?xml version="1.0" encoding="iso-8859-1"?>
<!-- Generator: Adobe Illustrator 19.0.0, SVG Export Plug-In . SVG Version: 6.00 Build 0)  -->
<svg version="1.1" id="Layer_1" xmlns="http://www.w3.org/2000/svg" xmlns:xlink="http://www.w3.org/1999/xlink" x="0px" y="0px"
	 viewBox="0 0 50 50" style="enable-background:new 0 0 50 50;" xml:space="preserve">
<path id="XMLID_348_" d="M49.107,37.109c-0.586,2.735-2.762,4.744-5.385,5.05C37.528,42.857,31.25,42.857,25,42.857
	s-12.528,0-18.722-0.698c-2.623-0.306-4.798-2.315-5.412-5.05C0,33.23,0,28.991,0,25s0-8.23,0.893-12.109
	c0.614-2.735,2.762-4.744,5.385-5.05C12.472,7.143,18.75,7.143,25,7.143s12.528,0,18.722,0.698c2.623,0.306,4.798,2.315,5.412,5.05
	C50,16.77,50,21.009,50,25S50,33.23,49.107,37.109z M34.877,23.493l-14.286-8.929c-0.558-0.363-1.255-0.363-1.814-0.055
	c-0.558,0.306-0.92,0.92-0.92,1.562v17.857c0,0.641,0.363,1.256,0.92,1.562c0.279,0.14,0.559,0.224,0.865,0.224
	c0.335,0,0.67-0.084,0.949-0.279l14.286-8.929c0.53-0.307,0.837-0.894,0.837-1.507S35.408,23.801,34.877,23.493z"/>
</svg>
