<?xml version="1.0" encoding="iso-8859-1"?>
<!-- Generator: Adobe Illustrator 19.0.0, SVG Export Plug-In . SVG Version: 6.00 Build 0)  -->
<svg version="1.1" id="Layer_1" xmlns="http://www.w3.org/2000/svg" xmlns:xlink="http://www.w3.org/1999/xlink" x="0px" y="0px"
	 viewBox="0 0 50 50" style="enable-background:new 0 0 50 50;" xml:space="preserve">
<path id="XMLID_347_" d="M20.475,20.975c-1.425,0-2.55,1.25-2.55,2.775s1.15,2.775,2.55,2.775c1.425,0,2.55-1.25,2.55-2.775
	C23.05,22.225,21.9,20.975,20.475,20.975z M29.6,20.975c-1.425,0-2.55,1.25-2.55,2.775s1.15,2.775,2.55,2.775
	c1.425,0,2.55-1.25,2.55-2.775S31.025,20.975,29.6,20.975z"/>
<path id="XMLID_344_" d="M41.75,0H8.25C5.425,0,3.125,2.3,3.125,5.15v33.8c0,2.85,2.3,5.15,5.125,5.15H36.6l-1.325-4.625l3.2,2.975
	l3.025,2.8L46.875,50V5.15C46.875,2.3,44.575,0,41.75,0z M32.1,32.65c0,0-0.9-1.075-1.65-2.025c3.275-0.925,4.525-2.975,4.525-2.975
	c-1.025,0.675-2,1.15-2.875,1.475C30.85,29.65,29.65,30,28.475,30.2c-2.4,0.45-4.6,0.325-6.475-0.025
	C20.575,29.9,19.35,29.5,18.325,29.1c-0.575-0.225-1.2-0.5-1.825-0.85c-0.075-0.05-0.15-0.075-0.225-0.125
	c-0.05-0.025-0.075-0.05-0.1-0.075c-0.45-0.25-0.7-0.425-0.7-0.425s1.2,2,4.375,2.95c-0.75,0.95-1.675,2.075-1.675,2.075
	c-5.525-0.175-7.625-3.8-7.625-3.8c0-8.05,3.6-14.575,3.6-14.575c3.6-2.7,7.025-2.625,7.025-2.625l0.25,0.3
	c-4.5,1.3-6.575,3.275-6.575,3.275s0.55-0.3,1.475-0.725C19,13.325,21.125,13,22,12.925c0.15-0.025,0.275-0.05,0.425-0.05
	c1.525-0.2,3.25-0.25,5.05-0.05C29.85,13.1,32.4,13.8,35,15.225c0,0-1.975-1.875-6.225-3.175l0.35-0.4c0,0,3.425-0.075,7.025,2.625
	c0,0,3.6,6.525,3.6,14.575C39.75,28.85,37.625,32.475,32.1,32.65z"/>
</svg>
