<?xml version="1.0" encoding="iso-8859-1"?>
<!-- Generator: Adobe Illustrator 19.0.0, SVG Export Plug-In . SVG Version: 6.00 Build 0)  -->
<svg version="1.1" id="Layer_1" xmlns="http://www.w3.org/2000/svg" xmlns:xlink="http://www.w3.org/1999/xlink" x="0px" y="0px"
	 viewBox="0 0 50 50" style="enable-background:new 0 0 50 50;" xml:space="preserve">
<path id="XMLID_348_" d="M1.193,30.1l-0.434,2.735c-0.021,0.108-0.086,0.195-0.195,0.195s-0.174-0.087-0.196-0.195L0,30.1
	l0.369-2.778c0.021-0.108,0.087-0.195,0.196-0.195s0.173,0.087,0.195,0.195L1.193,30.1z M3.19,30.1l-0.564,4.406
	C2.604,34.613,2.517,34.7,2.409,34.7s-0.196-0.087-0.196-0.217L1.714,30.1c0.499-4.492,0.499-4.492,0.499-4.492
	c0-0.109,0.087-0.196,0.196-0.196s0.196,0.087,0.217,0.196L3.19,30.1z M5.165,30.1l-0.542,5.144c0,0.13-0.109,0.239-0.239,0.239
	c-0.13,0-0.238-0.109-0.26-0.239L3.668,30.1l0.455-5.317c0.022-0.152,0.131-0.26,0.26-0.26c0.13,0,0.239,0.108,0.239,0.26
	L5.165,30.1z M7.161,30.1l-0.499,5.296c-0.022,0.173-0.152,0.282-0.304,0.282c-0.152,0-0.282-0.109-0.282-0.282L5.621,30.1
	l0.456-5.469c0-0.174,0.13-0.282,0.282-0.282c0.152,0,0.282,0.108,0.304,0.282L7.161,30.1z M9.158,30.1l-0.455,5.339
	c-0.022,0.196-0.173,0.347-0.347,0.347c-0.173,0-0.325-0.151-0.325-0.347L7.595,30.1l0.434-5.078c0-0.174,0.152-0.326,0.325-0.326
	c0.174,0,0.325,0.152,0.347,0.326L9.158,30.1z M11.198,30.1l-0.456,5.339c0,0.217-0.173,0.391-0.369,0.391
	c-0.217,0-0.369-0.174-0.39-0.391L9.592,30.1c0.39-8.246,0.39-8.246,0.39-8.246c0.021-0.217,0.173-0.391,0.39-0.391
	c0.196,0,0.369,0.174,0.369,0.391L11.198,30.1z M13.194,30.144l-0.412,5.295c0,0.239-0.195,0.413-0.412,0.413
	c-0.239,0-0.412-0.174-0.435-0.413l-0.347-5.295c0.347-10.156,0.347-10.156,0.347-10.156c0.022-0.239,0.196-0.413,0.435-0.413
	c0.217,0,0.412,0.174,0.412,0.413L13.194,30.144z M15.299,30.1l-0.39,5.252c-0.021,0.261-0.217,0.456-0.477,0.456
	c-0.238,0-0.434-0.195-0.455-0.456L13.628,30.1l0.347-10.981c0-0.26,0.217-0.477,0.455-0.477c0.26,0,0.456,0.217,0.477,0.477
	L15.299,30.1z M17.361,30.1l-0.347-11.349c-0.021-0.283-0.238-0.521-0.52-0.521c-0.26,0-0.499,0.238-0.499,0.521L15.69,30.1
	l0.303,5.231c0.022,0.282,0.239,0.499,0.499,0.499c0.282,0,0.499-0.217,0.52-0.499L17.361,30.1z M19.444,30.1l-0.325,5.187
	c0,0.304-0.239,0.543-0.542,0.543c-0.304,0-0.521-0.239-0.542-0.543L17.73,30.1l0.304-11.067c0-0.304,0.238-0.543,0.542-0.543
	c0.303,0,0.542,0.239,0.542,0.543L19.444,30.1z M21.571,30.122l-0.304,5.122c0,0.325-0.26,0.586-0.586,0.586
	c-0.325,0-0.586-0.261-0.607-0.586l-0.26-5.122l0.26-10.677c0.021-0.347,0.282-0.608,0.607-0.608c0.325,0,0.564,0.261,0.586,0.608
	L21.571,30.122z M23.676,30.122l-0.26-12.717c0-0.217-0.108-0.412-0.282-0.521c-0.108-0.065-0.217-0.108-0.347-0.108
	c-0.131,0-0.239,0.043-0.347,0.108c-0.173,0.109-0.282,0.304-0.282,0.521l-0.022,0.13L21.918,30.1c0,0,0,0.022,0.239,5.122v0.022
	c0,0.13,0.044,0.26,0.13,0.369c0.131,0.152,0.304,0.239,0.499,0.239c0.173,0,0.325-0.087,0.434-0.196
	c0.13-0.108,0.195-0.26,0.195-0.434l0.022-0.521L23.676,30.122z M25.564,35.134c0,0.369-0.304,0.673-0.673,0.673
	s-0.673-0.304-0.694-0.673l-0.13-2.474l-0.131-2.539l0.26-13.802v-0.065c0.021-0.196,0.108-0.391,0.26-0.521
	c0.108-0.087,0.26-0.152,0.434-0.152c0.108,0,0.238,0.043,0.325,0.108c0.196,0.109,0.325,0.326,0.347,0.565l0.303,13.867
	L25.564,35.134z M43.858,35.829c-17.036,0-17.057,0-17.057,0c-0.369-0.044-0.673-0.326-0.673-0.716V15.604
	c0-0.369,0.131-0.543,0.607-0.717c1.194-0.477,2.539-0.738,3.928-0.738c5.664,0,10.308,4.341,10.807,9.874
	c0.738-0.303,1.541-0.477,2.387-0.477c3.385,0,6.142,2.756,6.142,6.164C50,33.094,47.244,35.829,43.858,35.829z"/>
</svg>
