<?xml version="1.0" encoding="iso-8859-1"?>
<!-- Generator: Adobe Illustrator 19.0.0, SVG Export Plug-In . SVG Version: 6.00 Build 0)  -->
<svg version="1.1" id="Layer_1" xmlns="http://www.w3.org/2000/svg" xmlns:xlink="http://www.w3.org/1999/xlink" x="0px" y="0px"
	 viewBox="0 0 50 50" style="enable-background:new 0 0 50 50;" xml:space="preserve">
<path id="XMLID_351_" d="M44.861,14.815c0.032,0.444,0.032,0.888,0.032,1.332c0,13.548-10.312,29.158-29.158,29.158
	c-5.805,0-11.2-1.684-15.735-4.602c0.823,0.097,1.617,0.13,2.475,0.13c4.79,0,9.2-1.619,12.722-4.38
	c-4.505-0.093-8.282-3.043-9.581-7.105c0.634,0.093,1.27,0.157,1.936,0.157c0.92,0,1.839-0.125,2.697-0.347
	c-4.697-0.953-8.217-5.079-8.217-10.06c0-0.032,0-0.093,0-0.125c1.364,0.759,2.949,1.235,4.632,1.3
	c-2.761-1.841-4.57-4.981-4.57-8.534c0-1.906,0.509-3.649,1.397-5.171c5.044,6.216,12.627,10.278,21.129,10.722
	c-0.157-0.759-0.252-1.554-0.252-2.345c0-5.648,4.568-10.25,10.247-10.25c2.951,0,5.615,1.24,7.486,3.238
	c2.317-0.444,4.537-1.304,6.506-2.475c-0.763,2.377-2.38,4.376-4.505,5.648c2.061-0.222,4.061-0.796,5.9-1.586
	C48.605,11.549,46.859,13.358,44.861,14.815z"/>
</svg>
