<?xml version="1.0" encoding="iso-8859-1"?>
<!-- Generator: Adobe Illustrator 19.0.0, SVG Export Plug-In . SVG Version: 6.00 Build 0)  -->
<svg version="1.1" id="Layer_1" xmlns="http://www.w3.org/2000/svg" xmlns:xlink="http://www.w3.org/1999/xlink" x="0px" y="0px"
	 viewBox="0 0 50 50" style="enable-background:new 0 0 50 50;" xml:space="preserve">
<path id="XMLID_1_" d="M48.892,23.719v17.149c0,1.8-1.459,3.258-3.258,3.258c-1.799,0-3.258-1.458-3.258-3.258V23.892
	c0-9.581-7.795-17.376-17.376-17.376S7.624,14.311,7.624,23.892v16.975c0,1.8-1.459,3.258-3.258,3.258s-3.258-1.458-3.258-3.258
	V23.719c0-0.059,0.006-0.117,0.009-0.176C1.305,10.53,11.943,0,25,0s23.695,10.53,23.883,23.543
	C48.886,23.602,48.892,23.659,48.892,23.719z M16.128,30.017c-1.799,0-3.258,1.458-3.258,3.258v13.466
	c0,1.8,1.459,3.258,3.258,3.258s3.258-1.458,3.258-3.258V33.275C19.386,31.476,17.927,30.017,16.128,30.017z M33.872,30.017
	c-1.799,0-3.258,1.458-3.258,3.258v13.466c0,1.8,1.459,3.258,3.258,3.258s3.258-1.458,3.258-3.258V33.275
	C37.13,31.476,35.672,30.017,33.872,30.017z"/>
</svg>
