<?xml version="1.0" encoding="iso-8859-1"?>
<!-- Generator: Adobe Illustrator 19.0.0, SVG Export Plug-In . SVG Version: 6.00 Build 0)  -->
<svg version="1.1" id="Layer_1" xmlns="http://www.w3.org/2000/svg" xmlns:xlink="http://www.w3.org/1999/xlink" x="0px" y="0px"
	 viewBox="0 0 50 50" style="enable-background:new 0 0 50 50;" xml:space="preserve">
<path id="XMLID_348_" d="M31.575,36.805h-22.7C3.971,36.805,0,32.834,0,27.952c0-4.45,3.299-8.116,7.574-8.746
	c1.801-5.295,6.814-8.94,12.478-8.94c6.836,0,12.479,5.23,13.129,11.892c3.32,0.716,5.838,3.689,5.838,7.226
	C39.019,33.485,35.677,36.805,31.575,36.805z M33.073,25.586c-0.108,0.673-0.282,1.346-0.499,1.997
	c-0.217,0.694-0.868,1.128-1.562,1.128c-0.174,0-0.347-0.021-0.521-0.065c-0.89-0.304-1.345-1.237-1.063-2.105
	c0.325-0.998,0.499-2.04,0.499-3.104c0-5.424-4.427-9.852-9.874-9.852c-3.906,0-7.422,2.322-8.984,5.795
	c1.519,0.391,2.93,1.172,4.08,2.3c0.651,0.652,0.651,1.715,0,2.366c-0.651,0.651-1.715,0.651-2.366,0
	c-1.041-1.042-2.43-1.628-3.906-1.628c-3.06,0-5.556,2.474-5.556,5.535c0,3.06,2.496,5.534,5.556,5.534h22.7
	c2.279,0,4.123-1.845,4.123-4.102C35.699,27.648,34.592,26.172,33.073,25.586z M42.34,36.306c-0.326,0.478-0.846,0.717-1.389,0.717
	c-0.326,0-0.651-0.087-0.933-0.283c-0.759-0.499-0.955-1.541-0.434-2.3c1.02-1.498,1.541-3.234,1.541-5.057
	c0-1.801-0.521-3.559-1.541-5.057c-0.521-0.759-0.325-1.779,0.434-2.3c0.759-0.521,1.801-0.304,2.322,0.455
	c1.389,2.041,2.105,4.428,2.105,6.901S43.729,34.245,42.34,36.306z M47.092,38.998c-0.326,0.477-0.846,0.737-1.389,0.737
	c-0.304,0-0.629-0.086-0.912-0.282c-0.759-0.521-0.976-1.541-0.455-2.3c1.519-2.301,2.344-4.992,2.344-7.769
	s-0.825-5.469-2.344-7.747c-0.521-0.76-0.304-1.801,0.455-2.301c0.76-0.52,1.78-0.325,2.301,0.456
	C49.002,22.613,50,25.933,50,29.384S49.002,36.154,47.092,38.998z"/>
</svg>
