<?xml version="1.0" encoding="utf-8"?>
<!-- Generator: Adobe Illustrator 19.0.0, SVG Export Plug-In . SVG Version: 6.00 Build 0)  -->
<svg version="1.1" id="Layer_1" xmlns="http://www.w3.org/2000/svg" xmlns:xlink="http://www.w3.org/1999/xlink" x="0px" y="0px"
	 viewBox="940 -40 100 100" style="enable-background:new 940 -40 100 100;" xml:space="preserve">
<g>
	<path d="M1038.4-8.3l-46.7-31.1c-1.1-0.7-2.6-0.7-3.7,0L941.4-8.3c-0.9,0.6-1.5,1.7-1.5,2.8v31.1c0,1.1,0.6,2.2,1.5,2.8l46.7,31.1
		c0.6,0.4,1.2,0.6,1.8,0.6c0.6,0,1.3-0.2,1.8-0.6l46.7-31.1c0.9-0.6,1.5-1.7,1.5-2.8V-5.6C1039.9-6.7,1039.4-7.7,1038.4-8.3
		L1038.4-8.3z M989.9,21.5L972.6,10l17.3-11.6l17.3,11.6L989.9,21.5z M993.2-7.3v-23.1l37.3,24.9L1013.2,6L993.2-7.3L993.2-7.3z
		 M986.6-7.3L966.6,6L949.2-5.6l37.3-24.9V-7.3z M960.6,10l-14,9.3V0.7L960.6,10z M966.6,14l20,13.3v23.1l-37.3-24.9L966.6,14z
		 M993.2,27.3l20-13.3l17.3,11.6l-37.3,24.9V27.3z M1019.3,10l14-9.3v18.7L1019.3,10z"/>
</g>
</svg>
