<?xml version="1.0" encoding="utf-8"?>
<!-- Generator: Adobe Illustrator 19.0.0, SVG Export Plug-In . SVG Version: 6.00 Build 0)  -->
<svg version="1.1" id="Capa_1" xmlns="http://www.w3.org/2000/svg" xmlns:xlink="http://www.w3.org/1999/xlink" x="0px" y="0px"
	 viewBox="205 -205.1 430.1 430.1" style="enable-background:new 205 -205.1 430.1 430.1;" xml:space="preserve">
<g>
	<path id="Behance" d="M593.4-86H485.7v-26.8h107.8L593.4-86C593.4-86,593.4-86,593.4-86z M413.9,23.8c7,10.8,10.4,23.8,10.4,39.2
		c0,15.9-3.9,30.1-11.9,42.7c-5.1,8.3-11.4,15.4-18.9,21c-8.5,6.5-18.6,11-30.2,13.4c-11.6,2.4-24.2,3.6-37.8,3.6H205v-267.6h129.3
		c32.6,0.5,55.7,10,69.3,28.5c8.2,11.4,12.2,25,12.2,40.9c0,16.4-4.1,29.5-12.4,39.4C398.8-9.5,392-4.5,383.1,0.1
		C396.7,5.1,407,13,413.9,23.8z M266.7-18.4h56.6c11.6,0,21-2.2,28.3-6.6c7.2-4.4,10.9-12.3,10.9-23.5c0-12.4-4.8-20.7-14.4-24.7
		c-8.2-2.8-18.8-4.2-31.6-4.2h-49.8V-18.4z M368,59.2c0-13.9-5.7-23.5-17-28.7c-6.3-2.9-15.3-4.4-26.8-4.5h-57.4v71.3h56.6
		c11.6,0,20.6-1.5,27.1-4.7C362.1,86.7,368,75.6,368,59.2z M633.4,15.6c1.3,8.8,1.9,21.5,1.7,38.1H495.5c0.8,19.3,7.4,32.7,20,40.4
		c7.6,4.8,16.8,7.2,27.6,7.2c11.4,0,20.7-2.9,27.8-8.8c3.9-3.1,7.3-7.6,10.3-13.2h51.2c-1.3,11.4-7.5,22.9-18.6,34.6
		c-17.2,18.6-41.2,28-72.1,28c-25.5,0-48-7.9-67.5-23.6C454.8,102.7,445,77.1,445,41.6c0-33.3,8.8-58.7,26.4-76.4
		C489-52.6,511.9-61.4,540-61.4c16.7,0,31.7,3,45.1,9c13.4,6,24.4,15.4,33.1,28.4C626-12.6,631.1,0.6,633.4,15.6z M583.1,20.6
		c-0.9-13.3-5.4-23.4-13.4-30.3c-7.9-6.9-17.9-10.4-29.7-10.4c-12.9,0-22.8,3.7-29.9,11c-7.1,7.3-11.5,17.2-13.4,29.7L583.1,20.6
		L583.1,20.6z"/>
</g>
</svg>
