<?xml version="1.0" encoding="utf-8"?>
<!-- Generator: Adobe Illustrator 19.0.0, SVG Export Plug-In . SVG Version: 6.00 Build 0)  -->
<svg version="1.1" id="Layer_1" xmlns="http://www.w3.org/2000/svg" xmlns:xlink="http://www.w3.org/1999/xlink" x="0px" y="0px"
	 viewBox="2440 -40 100 100" style="enable-background:new 2440 -40 100 100;" xml:space="preserve">
<path d="M2440,10c0-9.1,2.2-17.4,6.7-25.1c4.5-7.7,10.5-13.7,18.2-18.2c7.7-4.5,16-6.7,25.1-6.7s17.4,2.2,25.1,6.7
	c7.7,4.5,13.7,10.5,18.2,18.2s6.7,16,6.7,25.1s-2.2,17.4-6.7,25.1s-10.5,13.7-18.2,18.2c-7.7,4.5-16,6.7-25.1,6.7
	s-17.4-2.2-25.1-6.7c-7.7-4.5-13.7-10.5-18.2-18.2C2442.2,27.4,2440,19.1,2440,10z M2448.3,10c0,10.4,3.5,19.6,10.5,27.5
	c3.2-6.3,8.3-12.2,15.2-17.9s13.7-9.2,20.3-10.7c-1-2.3-2-4.4-2.9-6.3c-11.5,3.7-23.9,5.5-37.2,5.5c-2.6,0-4.5,0-5.8-0.1
	c0,0.3,0,0.6,0,1C2448.3,9.4,2448.3,9.7,2448.3,10z M2449.6-0.3c1.5,0.1,3.6,0.2,6.5,0.2c11.1,0,21.7-1.5,31.7-4.5
	c-5.1-9-10.6-16.5-16.7-22.5c-5.3,2.7-9.8,6.4-13.6,11.1S2451.1-6,2449.6-0.3z M2464.5,42.9c7.5,5.9,16,8.8,25.5,8.8
	c4.9,0,9.8-0.9,14.7-2.8c-1.3-11.4-3.9-22.4-7.8-33.1c-6.1,1.3-12.3,4.7-18.5,10.1S2467.5,37,2464.5,42.9z M2479.8-30.3
	c5.9,6.1,11.3,13.6,16.3,22.7c9.1-3.8,15.9-8.6,20.5-14.5c-7.7-6.4-16.6-9.6-26.6-9.6C2486.6-31.7,2483.2-31.2,2479.8-30.3z
	 M2499.7-0.5c1,2.1,2.1,4.8,3.4,8.1c4.9-0.5,10.3-0.7,16.1-0.7c4.1,0,8.2,0.1,12.3,0.3c-0.5-9.1-3.8-17.1-9.8-24.2
	C2517.4-10.5,2510-5,2499.7-0.5z M2505.6,14.6c3.4,9.9,5.7,20,6.9,30.4c5.3-3.4,9.6-7.8,12.9-13.1c3.3-5.3,5.3-11.1,6-17.3
	c-4.9-0.3-9.3-0.5-13.3-0.5C2514.4,14.1,2510.3,14.3,2505.6,14.6z"/>
</svg>
