<?xml version="1.0" encoding="utf-8"?>
<!-- Generator: Adobe Illustrator 19.0.0, SVG Export Plug-In . SVG Version: 6.00 Build 0)  -->
<svg version="1.1" id="Layer_1" xmlns="http://www.w3.org/2000/svg" xmlns:xlink="http://www.w3.org/1999/xlink" x="0px" y="0px"
	 viewBox="2440 -40 100 100" style="enable-background:new 2440 -40 100 100;" xml:space="preserve">
<style type="text/css">
	.st0{fill:#12100E;}
</style>
<path class="st0" d="M2440-40V60h100V-40H2440z M2523.1-16.3l-5.4,5.1c-0.5,0.4-0.7,0.9-0.6,1.5v37.8c-0.1,0.6,0.1,1.2,0.6,1.5
	l5.2,5.1v1.1h-26.3v-1.1l5.4-5.3c0.5-0.5,0.5-0.7,0.5-1.5V-2.5l-15.1,38.3h-2l-17.6-38.3v25.7c-0.1,1.1,0.2,2.2,1,2.9l7.1,8.6v1.1
	h-20v-1.1l7.1-8.6c0.8-0.8,1.1-1.9,0.9-2.9V-6.6c0.1-0.8-0.2-1.6-0.8-2.2l-6.3-7.6v-1.1h19.5l15.1,33l13.2-33h18.6V-16.3z"/>
</svg>
