<?xml version="1.0" encoding="utf-8"?>
<!-- Generator: Adobe Illustrator 19.0.0, SVG Export Plug-In . SVG Version: 6.00 Build 0)  -->
<svg version="1.1" id="Layer_1" xmlns="http://www.w3.org/2000/svg" xmlns:xlink="http://www.w3.org/1999/xlink" x="0px" y="0px"
	 viewBox="2871.5 -39.5 100 100" style="enable-background:new 2871.5 -39.5 100 100;" xml:space="preserve">
<path d="M2921.5-39.5c-27.6,0-50,22.4-50,50s22.4,50,50,50s50-22.4,50-50C2971.5-17.1,2949.1-39.5,2921.5-39.5z M2944.4,32.6
	c-0.9,1.5-2.8,1.9-4.3,1c-11.7-7.2-26.5-8.8-43.9-4.8c-1.7,0.4-3.4-0.7-3.7-2.3c-0.4-1.7,0.7-3.4,2.3-3.7c19-4.4,35.4-2.5,48.6,5.6
	C2944.9,29.2,2945.3,31.1,2944.4,32.6z M2950.5,19c-1.1,1.8-3.5,2.4-5.4,1.3c-13.4-8.3-33.9-10.7-49.8-5.8c-2.1,0.6-4.2-0.5-4.9-2.6
	c-0.6-2.1,0.5-4.2,2.6-4.9c18.2-5.5,40.7-2.8,56.2,6.6C2951.1,14.8,2951.7,17.2,2950.5,19L2950.5,19z M2951.1,4.8
	C2935-4.7,2908.4-5.6,2893-1c-2.5,0.8-5.1-0.6-5.8-3.1c-0.7-2.5,0.6-5.1,3.1-5.8c17.7-5.4,47-4.3,65.6,6.7c2.2,1.3,3,4.2,1.6,6.4
	C2956.2,5.4,2953.3,6.1,2951.1,4.8z"/>
</svg>
