<?xml version="1.0" encoding="utf-8"?>
<!-- Generator: Adobe Illustrator 19.0.0, SVG Export Plug-In . SVG Version: 6.00 Build 0)  -->
<svg version="1.1" id="Layer_1" xmlns="http://www.w3.org/2000/svg" xmlns:xlink="http://www.w3.org/1999/xlink" x="0px" y="0px"
	 viewBox="2407.5 -40 100 100" style="enable-background:new 2407.5 -40 100 100;" xml:space="preserve">
<g>
	<path d="M2432,1.6c0-3.3,1.2-6.1,3.5-8.4c2.3-2.3,5.1-3.5,8.4-3.5c3.3,0,6,1.2,8.3,3.5c2.3,2.3,3.4,5.1,3.4,8.4
		c0,3.3-1.1,6-3.4,8.3c-2.3,2.3-5,3.4-8.3,3.4c-3.3,0-6.1-1.1-8.4-3.4C2433.2,7.6,2432,4.9,2432,1.6z"/>
	<path d="M2460,1.6c0-3.3,1.2-6.1,3.5-8.4c2.3-2.3,5.1-3.5,8.4-3.5c3.3,0,6,1.2,8.3,3.5c2.3,2.3,3.4,5.1,3.4,8.4
		c0,3.3-1.1,6-3.4,8.3c-2.3,2.3-5,3.4-8.3,3.4c-3.3,0-6.1-1.1-8.4-3.4C2461.1,7.6,2460,4.9,2460,1.6z"/>
	<path d="M2505.3,7.1c-1.2,0-2.3,0.4-3.3,1.2V-40h-89.3V8.2c-1.8-1.2-3.3-1.4-4.3-0.6c-0.5,0.5-0.2,1.8,1,3.9
		c5.7,5.7,12.6,10.4,20.5,13.9c-1.7,5.2-2.3,10.5-1.8,16c0.7,5.1,2.5,9.4,5.7,13.1c3.1,3.6,7.1,5.5,11.9,5.5c2.5,0,4.8-0.8,6.8-2.4
		c2.1-1.6,3.1-3.6,3.1-6V30.5c0.1,0,0.7,0.2,1.6,0.5c0.9,0.3,1.6,0.5,2,0.5v19.7c0,1.4,0.3,2.7,1,3.7c2.2,3.1,5.2,4.7,9,4.7
		c4.9-0.1,9-2,12-5.5c3.1-3.5,4.9-7.8,5.6-12.9c0.5-5.3-0.1-10.7-1.8-16.2c0.4-0.1,1.7-0.7,3.8-1.8c2.1-1,3.7-1.8,4.6-2.3
		s2.3-1.3,4.2-2.4c1.9-1.1,3.3-2.1,4.3-3c1-0.9,2-2,2.9-3.3c1-1.3,1.7-2.5,2.1-3.7C2507,7.5,2506.4,7.1,2505.3,7.1z M2496.7,11.4
		c-0.7,0.4-2,1-3.9,2l-69.9,0.8c-0.7-0.3-1.5-0.7-2.6-1.3c-1.1-0.6-1.9-1-2.4-1.3v-46.3h78.9V11.4z"/>
	<path d="M2452.2-6.8c2.3,2.3,3.4,5.1,3.4,8.4c0,3.3-1.1,6-3.4,8.3c-2.3,2.3-5,3.4-8.3,3.4c-3.3,0-6.1-1.1-8.4-3.4
		c-2.3-2.3-3.5-5-3.5-8.3c0-3.3,1.2-6.1,3.5-8.4c2.3-2.3,5.1-3.5,8.4-3.5C2447.2-10.3,2450-9.1,2452.2-6.8z"/>
	<path d="M2483.6,1.6c0,3.3-1.1,6-3.4,8.3c-2.3,2.3-5,3.4-8.3,3.4c-3.3,0-6.1-1.1-8.4-3.4c-2.3-2.3-3.5-5-3.5-8.3
		c0-3.3,1.2-6.1,3.5-8.4c2.3-2.3,5.1-3.5,8.4-3.5c3.3,0,6,1.2,8.3,3.5C2482.4-4.5,2483.6-1.7,2483.6,1.6z"/>
	<path d="M2455.7,1.6c0,3.3-1.1,6-3.4,8.3c-2.3,2.3-5,3.4-8.3,3.4c-3.3,0-6.1-1.1-8.4-3.4c-2.3-2.3-3.5-5-3.5-8.3
		c0-3.3,1.2-6.1,3.5-8.4c2.3-2.3,5.1-3.5,8.4-3.5c3.3,0,6,1.2,8.3,3.5C2454.5-4.5,2455.7-1.7,2455.7,1.6z"/>
	<path d="M2483.6,1.6c0,3.3-1.1,6-3.4,8.3c-2.3,2.3-5,3.4-8.3,3.4c-3.3,0-6.1-1.1-8.4-3.4c-2.3-2.3-3.5-5-3.5-8.3
		c0-3.3,1.2-6.1,3.5-8.4c2.3-2.3,5.1-3.5,8.4-3.5c3.3,0,6,1.2,8.3,3.5C2482.4-4.5,2483.6-1.7,2483.6,1.6z"/>
</g>
</svg>
