<?xml version="1.0" encoding="utf-8"?>
<!-- Generator: Adobe Illustrator 19.0.0, SVG Export Plug-In . SVG Version: 6.00 Build 0)  -->
<svg version="1.1" id="Layer_1" xmlns="http://www.w3.org/2000/svg" xmlns:xlink="http://www.w3.org/1999/xlink" x="0px" y="0px"
	 viewBox="2440 -40 100 100" style="enable-background:new 2440 -40 100 100;" xml:space="preserve">
<path d="M2490-40c-27.6,0-50,22.4-50,50s22.4,50,50,50s50-22.4,50-50S2517.6-40,2490-40z M2489.7-2.7c-1.7,0-3,1.3-3,3v18.3
	c0,7-5.7,12.7-12.7,12.7c-7,0-12.7-5.7-12.7-12.7v-8.3h9.7v8c0,1.7,1.3,3,3,3c1.7,0,3-1.3,3-3v-18c0-7,5.7-12.7,12.7-12.7
	c7,0,12.7,5.7,12.7,12.7V4l-5.7,1.8l-4-1.8V0.3C2492.7-1.3,2491.3-2.7,2489.7-2.7z M2518,18.7c0,7-5.7,12.7-12.7,12.7
	s-12.7-5.7-12.7-12.7v-8.2l4,1.8l5.7-1.8v8.2c0,1.7,1.3,3,3,3c1.7,0,3-1.3,3-3v-8h9.7V18.7z"/>
</svg>
