<?xml version="1.0" encoding="utf-8"?>
<!-- Generator: Adobe Illustrator 19.0.0, SVG Export Plug-In . SVG Version: 6.00 Build 0)  -->
<svg version="1.1" id="Layer_1" xmlns="http://www.w3.org/2000/svg" xmlns:xlink="http://www.w3.org/1999/xlink" x="0px" y="0px"
	 viewBox="0 0 100 100" style="enable-background:new 0 0 100 100;" xml:space="preserve">
<path d="M97.8,63.8c-1.1-2.9-1.1-3.4-0.7-8.3c0.9-9.2-0.4-17.3-4.3-25.2C86.7,17.6,75.2,8.3,61.2,4.7C58,3.8,55.6,3.6,49.3,3.6
	c-7,0-8.1-0.2-9.9-1.1C36.7,1.2,32,0,28.1,0C9.2,0-4.1,18.7,2.4,36.5c1.1,3.6,1.4,4.3,1.4,13.1c0,8.1,0.2,9.9,1.1,13.3
	c5.2,18,19.6,31.1,37.6,34.2c3.4,0.5,5.9,0.7,10.6,0.5c5-0.2,6.5-0.2,7.9,0.4c1.1,0.5,3.2,0.9,4.5,1.4l0,0h0.2
	c3.4,0.9,8.8,0.9,12.2,0.2c3.4-0.9,8.8-3.4,11.5-5.6C98,86.6,101.4,74.4,97.8,63.8z M75.7,70.4c-2.5,5.4-9,9.9-16.4,11.5l0,0h0.2
	c-4.3,0.9-14.2,0.9-18.7,0c-7.4-1.6-13.3-5.6-16.2-11.7c-3.4-7-1.1-12.4,5.4-12.4c2.9,0,4.7,1.6,7,5.9C40.3,70,43,71.8,49,72.3
	c5.2,0.2,9.2-0.9,11.9-3.6c1.8-1.8,2-2.3,2-4.5c0-2-0.4-2.9-1.4-4.1c-2-2.3-4.3-3.4-12.8-5.4c-12.2-2.9-15.5-4.3-19.6-8.1
	c-3.8-3.4-4.5-5.2-4.5-11c0-5.6,0.7-7.7,4.3-11.3c4.5-4.5,11.3-6.5,21.2-6.5c9.5,0,15.1,1.8,20.3,6.1c5.4,4.7,5.9,12.8,0.9,15.3
	c-3.8,1.8-6.8,0.7-9.7-3.8c-3.8-6.1-6.8-7.7-13.3-7.2c-4.5,0.2-7.9,1.6-9.2,3.8c-1.4,2-1.1,3.4,0.4,5.2c1.8,2,3.8,2.9,12.4,5
	c12.8,3.2,18.2,5.4,21.8,9.5C77.9,56.2,78.8,63.8,75.7,70.4z"/>
</svg>
