<?xml version="1.0" encoding="utf-8"?>
<!-- Generator: Adobe Illustrator 19.0.0, SVG Export Plug-In . SVG Version: 6.00 Build 0)  -->
<svg version="1.1" id="Layer_1" xmlns="http://www.w3.org/2000/svg" xmlns:xlink="http://www.w3.org/1999/xlink" x="0px" y="0px"
	 viewBox="2440 -40 100 100" style="enable-background:new 2440 -40 100 100;" xml:space="preserve">
<g>
	<path d="M2478.4,20c-2.8,0-5-2.2-5-5c0-2.8,2.2-5,5-5c2.8,0,5,2.2,5,5C2483.4,17.8,2481.1,20,2478.4,20z"/>
	<path d="M2502.4,27c0.5,0.5,0.5,1.4,0,2v-0.2c-3.6,2.7-7.9,4-12.4,3.9c-4.4,0.2-8.8-1.2-12.4-3.9c-0.5-0.6-0.4-1.4,0.2-1.9
		c0.5-0.4,1.2-0.4,1.7,0c3,2.2,6.7,3.3,10.4,3.1c3.7,0.2,7.4-0.9,10.5-3C2501,26.4,2501.9,26.4,2502.4,27z"/>
	<path d="M2506.5,15.2c0.1,2.8-2,5.1-4.8,5.2h-0.2l0-0.2c-2.8,0-5-2.2-5-5s2.2-5,5-5C2504.3,10.2,2506.5,12.4,2506.5,15.2z"/>
	<path d="M2490-40c-27.6,0-50,22.4-50,50s22.4,50,50,50s50-22.4,50-50S2517.6-40,2490-40z M2519.3,16.6c0,0.7,0,1.5,0,2.2
		c0,11.2-13,20.3-29.1,20.3S2461,30,2461,18.8c0-0.7,0-1.5,0-2.2c-0.7-0.3-1.4-0.8-2-1.3c-2.9-2.8-3.1-7.4-0.3-10.3
		c2.8-2.9,7.4-3.1,10.3-0.3c5.8-3.9,12.5-6,19.5-6.2l3.7-17.4c0,0,0,0,0,0c0.2-0.8,1-1.4,1.9-1.2l12.3,2.4c0.8-1.4,2.2-2.3,3.8-2.4
		c2.7-0.3,5.2,1.7,5.5,4.4c0.3,2.7-1.7,5.2-4.4,5.5c-2.7,0.3-5.2-1.7-5.5-4.4l-10.7-2.2l-3.2,15.6c6.9,0.1,13.6,2.3,19.3,6.2
		c1.3-1.2,3-2,4.8-2c4-0.1,7.4,3,7.6,7C2523.4,12.8,2521.8,15.4,2519.3,16.6z"/>
</g>
</svg>
