<?xml version="1.0" encoding="utf-8"?>
<!-- Generator: Adobe Illustrator 19.0.0, SVG Export Plug-In . SVG Version: 6.00 Build 0)  -->
<svg version="1.1" id="Layer_1" xmlns="http://www.w3.org/2000/svg" xmlns:xlink="http://www.w3.org/1999/xlink" x="0px" y="0px"
	 viewBox="2440 -40 100 100" style="enable-background:new 2440 -40 100 100;" xml:space="preserve">
<path d="M2473.3,10c0-9.2,7.5-16.7,16.7-16.7c9.2,0,16.7,7.5,16.7,16.7s-7.5,16.7-16.7,16.7C2480.8,26.7,2473.3,19.2,2473.3,10
	 M2464.3,10c0,14.2,11.5,25.7,25.7,25.7s25.7-11.5,25.7-25.7s-11.5-25.7-25.7-25.7S2464.3-4.2,2464.3,10 M2510.7-16.7
	c0,3.3,2.7,6,6,6c3.3,0,6-2.7,6-6s-2.7-6-6-6S2510.7-20,2510.7-16.7 M2469.8,50.7c-4.9-0.2-7.5-1-9.3-1.7c-2.3-0.9-4-2-5.8-3.7
	c-1.7-1.7-2.8-3.4-3.7-5.7c-0.7-1.8-1.5-4.4-1.7-9.3c-0.2-5.3-0.3-6.9-0.3-20.2s0.1-14.9,0.3-20.2c0.2-4.9,1-7.5,1.7-9.3
	c0.9-2.3,2-4,3.7-5.8c1.7-1.7,3.4-2.8,5.8-3.7c1.8-0.7,4.4-1.5,9.3-1.7c5.3-0.2,6.9-0.3,20.2-0.3c13.4,0,14.9,0.1,20.2,0.3
	c4.9,0.2,7.5,1,9.3,1.7c2.3,0.9,4,2,5.8,3.7c1.7,1.7,2.8,3.4,3.7,5.8c0.7,1.8,1.5,4.4,1.7,9.3c0.2,5.3,0.3,6.9,0.3,20.2
	c0,13.3,0,14.9-0.3,20.2c-0.2,4.9-1,7.5-1.7,9.3c-0.9,2.3-2,4-3.7,5.7c-1.7,1.7-3.4,2.8-5.8,3.7c-1.8,0.7-4.4,1.5-9.3,1.7
	c-5.3,0.2-6.9,0.3-20.2,0.3C2476.7,51,2475.1,50.9,2469.8,50.7 M2469.4-39.7c-5.3,0.2-9,1.1-12.1,2.3c-3.3,1.3-6.1,3-8.9,5.8
	c-2.8,2.8-4.5,5.6-5.8,8.9c-1.2,3.2-2.1,6.8-2.3,12.1c-0.2,5.3-0.3,7-0.3,20.6s0.1,15.3,0.3,20.6c0.2,5.3,1.1,9,2.3,12.1
	c1.3,3.3,3,6.1,5.8,8.9c2.8,2.8,5.6,4.5,8.9,5.8c3.2,1.2,6.8,2.1,12.1,2.3c5.3,0.2,7,0.3,20.6,0.3c13.6,0,15.3-0.1,20.6-0.3
	c5.3-0.2,9-1.1,12.1-2.3c3.3-1.3,6.1-3,8.9-5.8c2.8-2.8,4.5-5.6,5.8-8.9c1.2-3.2,2.1-6.8,2.3-12.1c0.2-5.3,0.3-7,0.3-20.6
	s-0.1-15.3-0.3-20.6c-0.2-5.3-1.1-9-2.3-12.1c-1.3-3.3-3-6.1-5.8-8.9c-2.8-2.8-5.6-4.5-8.9-5.8c-3.2-1.2-6.8-2.1-12.1-2.3
	c-5.3-0.2-7-0.3-20.6-0.3C2476.4-40,2474.7-39.9,2469.4-39.7"/>
</svg>
