<?xml version="1.0" encoding="utf-8"?>
<!-- Generator: Adobe Illustrator 19.0.0, SVG Export Plug-In . SVG Version: 6.00 Build 0)  -->
<svg version="1.1" id="Layer_1" xmlns="http://www.w3.org/2000/svg" xmlns:xlink="http://www.w3.org/1999/xlink" x="0px" y="0px"
	 viewBox="2873.7 -40.5 100 100" style="enable-background:new 2873.7 -40.5 100 100;" xml:space="preserve">
<path d="M2947.5-26l-2.4,11.6c-0.3,1.2-1.4,2.3-2.9,2.3h-20.8c-2.3,0-4.2,1.9-4.2,4.2v2.5c0,2.3,1.9,4.2,4.2,4.2h17.6
	c1.6,0,3,1.6,2.7,3.3c-0.3,1.8-2.2,10.8-2.4,11.8c-0.1,1-1.2,2.3-2.9,2.3h-14.4c-3,0.1-3.6,0.1-5.4,2.3
	c-1.8,2.2-17.5,21.9-17.5,21.9c-0.1,0.2-0.3,0.1-0.3-0.1v-67c0-1.6,1.3-2.9,2.9-2.9h43.2C2946.4-29.5,2947.9-27.9,2947.5-26
	 M2950.7-40.5h-53.3c-7.3,0-9.5,5.5-9.5,9v84.7c0,4.2,2.1,5.4,3.3,5.9c1.2,0.5,4.2,0.8,6.4-1.4c0,0,25.3-29.5,25.7-30
	c0.4-0.5,0.6-0.5,0.9-0.5h16c6.8,0,8.1-4.7,8.9-7.6c0.6-2.4,7.7-36.6,9.9-47.4C2960.6-36,2958.5-40.5,2950.7-40.5"/>
</svg>
