<?xml version="1.0" encoding="utf-8"?>
<!-- Generator: Adobe Illustrator 19.0.0, SVG Export Plug-In . SVG Version: 6.00 Build 0)  -->
<svg version="1.1" id="Layer_1" xmlns="http://www.w3.org/2000/svg" xmlns:xlink="http://www.w3.org/1999/xlink" x="0px" y="0px"
	 viewBox="1988 -40 100 100" style="enable-background:new 1988 -40 100 100;" xml:space="preserve">
<path d="M2073.5-40h-70.9c-8,0-14.5,6.5-14.5,14.5v70.9c0,8,6.5,14.5,14.5,14.5h70.9c8,0,14.5-6.5,14.5-14.5v-70.9
	C2088-33.5,2081.5-40,2073.5-40z M2034.6,16.2c-0.9,2-2.1,3.9-3.6,5.4c-3.1,3.1-7.3,5-12,5c-4.7,0-8.9-1.9-12-5c-3.1-3.1-5-7.3-5-12
	c0-4.7,1.9-8.9,5-12c3.1-3.1,7.3-5,12-5c2.3,0,4.6,0.5,6.6,1.3c2,0.9,3.9,2.1,5.4,3.6c3.1,3.1,5,7.3,5,12
	C2036,11.9,2035.5,14.1,2034.6,16.2z M2076.5,16.2c-0.9,2-2.1,3.9-3.6,5.4c-3.1,3.1-7.3,5-12,5s-8.9-1.9-12-5c-3.1-3.1-5-7.3-5-12
	c0-4.7,1.9-8.9,5-12c3.1-3.1,7.3-5,12-5c2.3,0,4.6,0.5,6.6,1.3c2,0.9,3.9,2.1,5.4,3.6c3.1,3.1,5,7.3,5,12
	C2077.8,11.9,2077.4,14.1,2076.5,16.2z"/>
</svg>
