<?xml version="1.0" encoding="utf-8"?>
<!-- Generator: Adobe Illustrator 19.0.0, SVG Export Plug-In . SVG Version: 6.00 Build 0)  -->
<svg version="1.1" id="Layer_1" xmlns="http://www.w3.org/2000/svg" xmlns:xlink="http://www.w3.org/1999/xlink" x="0px" y="0px"
	 viewBox="0 0 100 100" style="enable-background:new 0 0 100 100;" xml:space="preserve">
<path d="M100,49.9c0,27.7-22.4,50.1-50.1,50.1c-6.3,0-12.4-1.2-18-3.3c7.4-5.7,10-16,12.2-26.9c4.1,2.3,6.2,4.8,11.4,5.2
	c19.1,1.4,29.8-18.1,27.2-36.2c-2.3-16-19.1-24.1-37-22.2c-14.1,1.5-28.2,12.4-28.8,28c-0.4,9.5,3.6,16.6,13.1,18.6
	c1.1-4.5,1.3-6.9,1.3-6.9s-4.2-4-4.6-6.5c-3.5-20.4,24.7-34.5,39.6-20.1c10.2,9.9,3.5,40.4-13,37.3c-15.8-3,7.7-27.3-4.9-32.1
	C38.2,31,32.7,46.7,37.6,54.5c-2.8,13.1-8.7,25.6-6.6,42C12.8,89,0,71,0,50.1C0,22.4,22.4,0,50.1,0C77.6-0.2,100,22.2,100,49.9z"/>
</svg>
