<?xml version="1.0" encoding="utf-8"?>
<!-- Generator: Adobe Illustrator 19.0.0, SVG Export Plug-In . SVG Version: 6.00 Build 0)  -->
<svg version="1.1" id="Layer_1" xmlns="http://www.w3.org/2000/svg" xmlns:xlink="http://www.w3.org/1999/xlink" x="0px" y="0px"
	 viewBox="2440 -40 100 100" style="enable-background:new 2440 -40 100 100;" xml:space="preserve">
<path d="M2490,10.1c0-0.1,0.1-0.1,0.1-0.2L2490,10.1L2490,10.1z"/>
<path d="M2532.3-40h-84.7c-4.1,0-7.3,3.2-7.3,7.2l0,0v85.7c0,4,3.3,7.2,7.3,7.2h84.7c4.1,0,7.3-3.2,7.3-7.2v-85.7
	C2539.7-36.8,2536.4-40,2532.3-40z M2470.4,43.7h-15V-1.4h15V43.7z M2462.9-7.6L2462.9-7.6c-5.1,0-8.4-3.5-8.4-7.8
	c0-4.4,3.4-7.8,8.5-7.8c5.1,0,8.3,3.4,8.4,7.8C2471.4-11.1,2468.2-7.6,2462.9-7.6z M2524.6,43.7h-15V19.6c0-6.1-2.2-10.2-7.6-10.2
	c-4.1,0-6.6,2.8-7.7,5.5c-0.4,1-0.5,2.3-0.5,3.7v25.2h-15c0-0.3,0.2-40.9,0-45.2h15v6.4c2-3.1,5.6-7.5,13.5-7.5
	c9.9,0,17.3,6.5,17.3,20.3V43.7z"/>
<path d="M2490,10.1L2490,10.1l0.1-0.2C2490,10,2490,10,2490,10.1z"/>
</svg>
