<?xml version="1.0" encoding="utf-8"?>
<!-- Generator: Adobe Illustrator 19.0.0, SVG Export Plug-In . SVG Version: 6.00 Build 0)  -->
<svg version="1.1" id="Layer_1" xmlns="http://www.w3.org/2000/svg" xmlns:xlink="http://www.w3.org/1999/xlink" x="0px" y="0px"
	 viewBox="480 -40.3 100 100" style="enable-background:new 480 -40.3 100 100;" xml:space="preserve">
<g id="Layer_1_1_">
</g>
<g>
	<path d="M487.1,9.7c0,17,9.9,31.6,24.2,38.6L490.8-7.7C488.4-2.4,487.1,3.5,487.1,9.7z"/>
	<path d="M559,7.6c0-5.3-1.9-9-3.5-11.8c-2.2-3.5-4.2-6.5-4.2-10.1c0-3.9,3-7.6,7.2-7.6c0.2,0,0.4,0,0.6,0c-7.6-7-17.8-11.3-29-11.3
		c-15,0-28.2,7.7-35.8,19.3c1,0,2,0.1,2.8,0.1c4.5,0,11.4-0.5,11.4-0.5c2.3-0.1,2.6,3.3,0.3,3.5c0,0-2.3,0.3-4.9,0.4l15.6,46.5
		l9.4-28.2L522-10.4c-2.3-0.1-4.5-0.4-4.5-0.4c-2.3-0.1-2-3.7,0.3-3.5c0,0,7.1,0.5,11.3,0.5c4.5,0,11.4-0.5,11.4-0.5
		c2.3-0.1,2.6,3.3,0.3,3.5c0,0-2.3,0.3-4.9,0.4l15.5,46.1l4.3-14.3C557.5,15.5,559,11.2,559,7.6z"/>
	<path d="M530.8,13.5l-12.9,37.4c3.8,1.1,7.9,1.7,12.1,1.7c5,0,9.8-0.9,14.2-2.4c-0.1-0.2-0.2-0.4-0.3-0.6L530.8,13.5z"/>
	<path d="M567.6-10.8c0.2,1.4,0.3,2.8,0.3,4.4c0,4.4-0.8,9.2-3.3,15.4l-13.1,37.9c12.8-7.4,21.3-21.3,21.3-37.1
		C572.9,2.3,571-4.7,567.6-10.8z"/>
	<path d="M530-40.3c-27.6,0-50,22.4-50,50c0,27.6,22.4,50,50,50c27.6,0,50-22.4,50-50C580-17.8,557.6-40.3,530-40.3z M530,57.4
		c-26.3,0-47.7-21.4-47.7-47.7c0-26.3,21.4-47.7,47.7-47.7c26.3,0,47.7,21.4,47.7,47.7C577.7,36,556.3,57.4,530,57.4z"/>
</g>
</svg>
