<?xml version="1.0" encoding="utf-8"?>
<!-- Generator: Adobe Illustrator 19.0.0, SVG Export Plug-In . SVG Version: 6.00 Build 0)  -->
<svg version="1.1" id="Layer_1" xmlns="http://www.w3.org/2000/svg" xmlns:xlink="http://www.w3.org/1999/xlink" x="0px" y="0px"
	 viewBox="2440 -39.5 100 100" style="enable-background:new 2440 -39.5 100 100;" xml:space="preserve">
<title>Layer 1</title>
<path d="M2540-12.7c-0.4,9.7-7.2,23-20.4,39.9c-13.6,17.6-25.1,26.4-34.5,26.4c-5.8,0-10.8-5.4-14.8-16.1l-8.1-29.6
	c-3-10.8-6.2-16.1-9.6-16.1c-0.7,0-3.4,1.6-7.8,4.7l-4.7-6.1c4.9-4.3,9.7-8.6,14.6-13c6.6-5.7,11.5-8.7,14.8-9
	c7.8-0.7,12.6,4.6,14.3,15.9c1.9,12.3,3.3,19.9,4,22.9c2.2,10.2,4.7,15.2,7.4,15.2c2.1,0,5.2-3.3,9.4-9.9c4.2-6.6,6.4-11.6,6.7-15
	c0.6-5.7-1.6-8.5-6.7-8.5c-2.4,0-4.9,0.5-7.4,1.6c4.9-16,14.3-23.8,28.2-23.3C2535.7-32.3,2540.5-25.7,2540-12.7L2540-12.7z"/>
</svg>
