<?xml version="1.0" encoding="utf-8"?>
<!-- Generator: Adobe Illustrator 19.0.0, SVG Export Plug-In . SVG Version: 6.00 Build 0)  -->
<svg version="1.1" id="Layer_1" xmlns="http://www.w3.org/2000/svg" xmlns:xlink="http://www.w3.org/1999/xlink" x="0px" y="0px"
	 viewBox="2130 -40 100 100" style="enable-background:new 2130 -40 100 100;" xml:space="preserve">
<path d="M2177.9,59.9c-4-0.6-7.3-3.5-11.9-8.1c-13.8-12.9-28-47.6-29.8-76.8h16.7c4.4,30.7,11.3,51.5,26.1,68.4
	c7.3-6.9,13.3-16.5,17.5-24.2c-8.1-3.8-12.7-10.8-15.2-17.3c-7.7-20-1-41.3,20.9-41.9c16.1,0,21.5,12.1,21.7,23.6
	c-0.2,6.9-1.3,11.7-3.3,17.5c-4.6,1-9.4-0.2-12.3-2.3c-2.3-1.7-3.1-0.8-1.7-5.4c1.7-5.8,2.3-18.6-5.6-18.8
	c-5.4,0.4-6.9,7.1-6.9,11.7c1.5,18.8,13.6,27.1,29.6,22.9v12.1c-5.2,1.3-5.4,1.3-11.9,1.5c-3.8,8.8-24.2,39-34,37.1H2177.9
	L2177.9,59.9z"/>
</svg>
