<?xml version="1.0" encoding="utf-8"?>
<!-- Generator: Adobe Illustrator 19.0.0, SVG Export Plug-In . SVG Version: 6.00 Build 0)  -->
<svg version="1.1" id="Layer_1" xmlns="http://www.w3.org/2000/svg" xmlns:xlink="http://www.w3.org/1999/xlink" x="0px" y="0px"
	 viewBox="2440 -40 100 100" style="enable-background:new 2440 -40 100 100;" xml:space="preserve">
<path d="M2524.6-40h-69.2c-8.5,0-15.4,6.9-15.4,15.4v69.2c0,8.5,6.9,15.4,15.4,15.4h69.2c8.5,0,15.4-6.9,15.4-15.4v-69.2
	C2540-33.1,2533.1-40,2524.6-40z M2521,30l-9.1,0.1c0,0-2,0.4-4.5-1.4c-3.4-2.3-6.6-8.4-9.2-7.7c-2.5,0.8-2.5,6.3-2.5,6.3
	s0,1.2-0.6,1.8c-0.6,0.7-1.9,0.8-1.9,0.8h-4.1c0,0-9,0.5-17-7.7c-8.7-9-16.3-26.9-16.3-26.9s-0.4-1.2,0-1.7c0.5-0.6,2-0.7,2-0.7
	l9.8-0.1c0,0,0.9,0.2,1.6,0.6c0.5,0.4,0.8,1.1,0.8,1.1s1.6,4,3.7,7.6c4.1,7.1,6,8.6,7.4,7.8c2-1.1,1.4-10,1.4-10s0-3.2-1-4.7
	c-0.8-1.1-2.4-1.4-3-1.5c-0.6-0.1,0.4-1.4,1.5-1.9c1.8-0.9,4.9-0.9,8.5-0.9c2.9,0,3.7,0.2,4.8,0.5c3.4,0.8,2.2,4,2.2,11.5
	c0,2.4-0.4,5.8,1.3,6.9c0.7,0.5,2.6,0.1,7.2-7.7c2.2-3.7,3.8-8,3.8-8s0.4-0.8,0.9-1.1c0.6-0.3,1.3-0.2,1.3-0.2l10.3-0.1
	c0,0,3.1-0.4,3.6,1c0.5,1.5-1.2,4.9-5.4,10.5c-6.9,9.2-7.7,8.3-1.9,13.7c5.5,5.1,6.6,7.6,6.8,7.9C2525.8,29.7,2521,30,2521,30z"/>
</svg>
